<svg xmlns="http://www.w3.org/2000/svg" viewBox="0 0 64 64" width="64" height="64">
  <!-- Background -->
  <rect width="64" height="64" rx="12" fill="#2b2018"/>
  <!-- Van body -->
  <rect x="6" y="22" width="44" height="22" rx="3" fill="#c4622d"/>
  <!-- Cab roof -->
  <path d="M30 22 L30 14 Q30 12 32 12 L46 12 Q50 12 50 16 L50 22 Z" fill="#c4622d"/>
  <!-- Windscreen -->
  <path d="M32 14 L32 21 L49 21 L49 17 Q49 14 46 14 Z" fill="#f7f3ed" opacity="0.85"/>
  <!-- Side window -->
  <rect x="8" y="24" width="10" height="7" rx="1.5" fill="#f7f3ed" opacity="0.85"/>
  <!-- Wheels -->
  <circle cx="16" cy="44" r="6" fill="#1a1209"/>
  <circle cx="16" cy="44" r="2.5" fill="#b0a496"/>
  <circle cx="44" cy="44" r="6" fill="#1a1209"/>
  <circle cx="44" cy="44" r="2.5" fill="#b0a496"/>
  <!-- Box in cargo area -->
  <rect x="22" y="26" width="14" height="10" rx="2" fill="#f7f3ed" opacity="0.6"/>
  <line x1="29" y1="26" x2="29" y2="36" stroke="#2b2018" stroke-width="1" opacity="0.4"/>
</svg>
